<svg xmlns="http://www.w3.org/2000/svg" viewBox="0 0 512 512">
  <defs>
    <linearGradient id="grad" x1="0%" y1="0%" x2="100%" y2="100%">
      <stop offset="0%" style="stop-color:#3b82f6;stop-opacity:1" />
      <stop offset="100%" style="stop-color:#9333ea;stop-opacity:1" />
    </linearGradient>
  </defs>
  
  <!-- Rounded Background -->
  <rect x="0" y="0" width="512" height="512" rx="128" fill="url(#grad)" />
  
  <!-- White Flask Icon -->
  <path fill="white" d="M371.8 387.2L288 238.6V96h24c13.3 0 24-10.7 24-24S325.3 48 312 48H200c-13.3 0-24 10.7-24 24s10.7 24 24 24h24v142.6l-83.8 148.6c-9.6 17-2.8 38.6 15 45.3C168.1 437.6 182 443 196 443h120c32.6 0 55.4-34.9 39.1-64.2zM248 152v64l-32 56h80l-32-56v-64h-16z"/>
</svg>
