<svg xmlns="http://www.w3.org/2000/svg" viewBox="0 0 128 128">
  <defs>
    <linearGradient id="grad" x1="0%" y1="0%" x2="100%" y2="100%">
      <stop offset="0%" style="stop-color:#3b82f6;stop-opacity:1" /> <!-- blue-500 -->
      <stop offset="100%" style="stop-color:#9333ea;stop-opacity:1" /> <!-- purple-600 -->
    </linearGradient>
  </defs>
  <!-- Background Circle (Optional, can be removed for transparent flask) -->
  <!-- <circle cx="64" cy="64" r="64" fill="white" /> -->
  
  <!-- Flask Shape -->
  <path d="M50.4 78.5a75.1 75.1 0 0 0-28.5 6.9l24.2-65.7c.7-2 1.9-3.2 3.4-3.2h29c1.5 0 2.7 1.2 3.4 3.2l24.2 65.7s-11.6-7-28.5-7L67 45.5c-.4-1.7-1.6-2.8-2.9-2.8-1.3 0-2.5 1.1-2.9 2.7L50.4 78.5Zm-1.1 28.2Zm-4.2-20.2c-2 6.6-.6 15.8 4.2 20.2a17.5 17.5 0 0 1 .2-.7 5.5 5.5 0 0 1 5.7-4.5c2.8.1 4.3 1.5 4.7 4.7.2 1.1.2 2.3.2 3.5v.4c0 2.7.7 5.2 2.2 7.4a13 13 0 0 0 5.7 4.9v-.3l-.2-.3c-1.8-5.6-.5-9.5 4.4-12.8l1.5-1a73 73 0 0 0 3.2-2.2 16 16 0 0 0 6.8-11.4c.3-2 .1-4-.6-6l-.8.6-1.6 1a37 37 0 0 1-22.4 2.7c-5-.7-9.7-2-13.2-6.2Z" fill="url(#grad)" display="none"/>
  
  <!-- Modern Abstract "TL" Monogram / Lab Flask Hybrid -->
  <path fill="url(#grad)" d="M64 8C50 8 46 20 46 20L32 60H24C16 60 12 68 12 76V108C12 116 18 120 26 120H102C110 120 116 116 116 108V76C116 68 112 60 104 60H96L82 20C82 20 78 8 64 8ZM64 24C68 24 70 28 72 34L78 52H50L56 34C58 28 60 24 64 24ZM32 76H96V104H32V76Z" />
  
  <!-- Simple stylized T/L or Flask -->
  <!-- Let's go with a simple filled shape that reads well at small sizes -->
  <rect width="128" height="128" rx="32" fill="url(#grad)" />
  <path d="M44 32H84V44H70V96H44V32Z" fill="white" transform="translate(10, 0)"/> 
  <path d="M44 84H84V96H44V84Z" fill="white" transform="translate(10, 0)"/>
  <!-- Wait, drawing specific letters is fidely without font. Let's do a simple flask icon properly designed -->
</svg>
